<svg width="150" height="150" viewBox="0 0 150 150" fill="none" xmlns="http://www.w3.org/2000/svg">
<path d="M38.7187 118.616L31.1743 33.996H114.075L106.522 118.602L72.5737 128.014L38.7187 118.616Z" fill="#264DE4"/>
<path d="M100.057 113.215L106.511 40.9149H72.6245V120.82L100.057 113.215Z" fill="#2965F1"/>
<path d="M48.4697 72.2992L49.3998 82.6773H72.6244V72.2992H48.4697Z" fill="#EBEBEB"/>
<path d="M47.5441 61.6717H72.6245V51.2933H72.5886H46.6007L47.5441 61.6717Z" fill="#EBEBEB"/>
<path d="M72.5767 110.064L72.6244 110.05V99.2526L72.579 99.2647L61.0206 96.1438L60.2817 87.8666H54.6653H49.8636L51.3176 104.162L72.5767 110.064Z" fill="#EBEBEB"/>
<path d="M50.6843 11H63.2542V16.2565H55.9408V21.513H63.2542V26.7695H50.6843V11Z" fill="black"/>
<path d="M65.7682 11H78.3381V15.5709H71.0247V16.485H78.3381V26.998H65.7682V22.1986H73.0816V21.2844H65.7682V11Z" fill="black"/>
<path d="M80.852 11H93.4219V15.5709H86.1085V16.485H93.4219V26.998H80.852V22.1986H88.1654V21.2844H80.852V11Z" fill="black"/>
<path d="M98.5862 51.2933H72.5885V61.6717H87.2125L86.2682 72.2992H72.5885V82.6773H85.3682L84.1635 96.1371L72.5885 99.2613V110.059L93.8645 104.162L94.0206 102.409L96.4594 75.086L96.7126 72.2992L98.5862 51.2933Z" fill="white"/>
</svg>
