<svg width="230" height="150" viewBox="0 0 230 150" fill="none" xmlns="http://www.w3.org/2000/svg">
<g clip-path="url(#clip0_307_775)">
<path d="M65.5588 46.926C62.625 42.4758 61.9265 41.8847 55.9542 41.8847C55.9193 41.8847 55.9193 41.8847 55.8844 41.8847C55.8494 41.8847 55.8494 41.8847 55.8145 41.8847C49.8422 41.8847 49.1786 42.4758 46.2099 46.926C43.4508 51.0982 16.069 101.025 16.069 102.415C16.069 104.432 16.5929 106.344 18.4788 109.056C20.3998 111.803 23.7177 113.332 26.1276 110.899C27.7691 109.265 45.3368 79.121 53.8237 67.7171C54.8366 66.2917 56.9321 66.2917 57.9799 67.7171C66.4669 79.121 84.0346 109.265 85.6761 110.899C88.0859 113.332 91.4039 111.803 93.3248 109.056C95.2108 106.344 95.7347 104.432 95.7347 102.415C95.6998 101.025 68.3179 51.0634 65.5588 46.926Z" fill="#1173B6"/>
<path d="M105.521 57.2539H127.38V62.6612H111.952V71.8799H124.985V77.3059H111.952V87.9702H127.927V93.3775H105.521V57.2539Z" fill="#585D67"/>
<path d="M139.564 79.2022L132.076 67.2048L139.017 66.2661C139.017 66.2661 143.638 75.3533 143.996 75.9916L149.447 66.2661H156.048L148.617 79.2022C148.41 79.5589 148.429 79.9908 148.636 80.3287L156.671 92.6265L149.636 93.3775L144.015 83.2201C143.6 83.9899 138.187 93.3775 138.187 93.3775H130.983L139.545 80.3663C139.772 80.0095 139.79 79.5589 139.564 79.2022Z" fill="#585D67"/>
<path d="M166.761 95.5742V103.141L160.386 104.079V66.2473H165.648L166.101 69.1199H166.327C167.478 68.1624 168.741 67.3362 170.156 66.6416C171.571 65.9469 173.023 65.5901 174.532 65.5901C176.229 65.5901 177.738 65.9093 179.058 66.5477C180.378 67.186 181.491 68.1248 182.415 69.3452C183.34 70.5656 184.037 72.0113 184.528 73.7011C184.999 75.3908 185.244 77.2871 185.244 79.39C185.244 81.7181 184.924 83.7834 184.283 85.6046C183.641 87.4258 182.774 88.9466 181.699 90.1857C180.624 91.4249 179.379 92.3637 177.983 93.0208C176.569 93.6779 175.116 94.0159 173.608 94.0159C172.419 94.0159 171.25 93.753 170.062 93.2461C168.873 92.7392 167.723 91.9882 166.629 91.0306L166.761 95.5742ZM166.761 86.5246C167.761 87.3694 168.723 87.9702 169.647 88.2894C170.571 88.6274 171.439 88.7776 172.25 88.7776C174.06 88.7776 175.569 87.989 176.795 86.4307C178.021 84.8723 178.624 82.5442 178.624 79.4463C178.624 76.7239 178.153 74.6023 177.229 73.1002C176.305 71.5982 174.815 70.8284 172.74 70.8284C170.816 70.8284 168.817 71.8423 166.742 73.87V86.5246H166.761Z" fill="#585D67"/>
<path d="M189.054 79.8406C189.054 77.5875 189.413 75.5974 190.111 73.8137C190.808 72.0488 191.77 70.5468 192.958 69.3452C194.166 68.1248 195.542 67.2048 197.089 66.5477C198.635 65.9093 200.276 65.5901 201.974 65.5901C203.671 65.5901 205.312 65.9093 206.878 66.5477C208.443 67.186 209.82 68.1248 211.008 69.3452C212.196 70.5656 213.139 72.0488 213.856 73.8137C214.573 75.5786 214.931 77.5875 214.931 79.8406C214.931 82.0936 214.573 84.0838 213.856 85.8674C213.139 87.6323 212.177 89.1343 211.008 90.3359C209.82 91.5563 208.443 92.4763 206.878 93.0959C205.312 93.7155 203.671 94.0347 201.974 94.0347C200.276 94.0347 198.654 93.7155 197.089 93.0959C195.524 92.4763 194.166 91.5563 192.958 90.3359C191.751 89.1155 190.808 87.6323 190.111 85.8674C189.413 84.0838 189.054 82.0936 189.054 79.8406ZM195.599 79.8406C195.599 82.563 196.165 84.7409 197.296 86.3931C198.428 88.0266 199.993 88.8527 201.993 88.8527C203.992 88.8527 205.557 88.0266 206.708 86.3931C207.858 84.7597 208.424 82.5818 208.424 79.8406C208.424 77.0806 207.858 74.8839 206.708 73.2505C205.557 71.617 203.992 70.7909 201.993 70.7909C199.993 70.7909 198.428 71.617 197.296 73.2505C196.165 74.8839 195.599 77.0806 195.599 79.8406Z" fill="#585D67"/>
</g>
<defs>
<clipPath id="clip0_307_775">
<rect width="230" height="150" fill="white"/>
</clipPath>
</defs>
</svg>
