<svg width="300" height="150" viewBox="0 0 300 150" fill="none" xmlns="http://www.w3.org/2000/svg">
<g clip-path="url(#clip0_306_617)">
<path d="M100.029 104.383V46.7696H103.156V55.8329C103.526 55.4314 103.867 55.0049 104.177 54.5564C105.455 51.9036 107.463 49.67 109.965 48.1175C112.467 46.5651 115.36 45.758 118.304 45.7909C125.432 45.5781 131.218 48.2163 134.622 54.5564C136.788 58.4949 137.98 62.8946 138.099 67.3878C138.217 71.8811 137.259 76.3375 135.303 80.3847C132.133 87.4906 124.304 91.0224 115.921 89.7246C113.313 89.5024 110.801 88.6306 108.616 87.1886C106.431 85.7467 104.642 83.7806 103.412 81.4697V104.383H100.029ZM103.156 67.1514C103.433 69.9597 103.539 71.9596 103.858 73.9169C105.092 81.6186 109.645 86.1929 116.794 87.0226C120.15 87.5743 123.594 86.945 126.539 85.2419C129.483 83.5388 131.746 80.8673 132.942 77.6827C134.315 74.407 134.977 70.8766 134.881 67.3259C134.786 63.7751 133.936 60.2853 132.389 57.0881C131.113 54.2338 128.942 51.8722 126.206 50.36C123.469 48.8478 120.315 48.2671 117.219 48.7056C114.313 48.9162 111.544 50.0272 109.298 51.8841C107.052 53.741 105.441 56.2516 104.688 59.0667C104.022 61.7298 103.51 64.4292 103.156 67.1514Z" fill="black"/>
<path d="M201.895 74.9807C201.421 79.0371 199.49 82.7834 196.461 85.5228C193.432 88.2622 189.512 89.8083 185.428 89.8735C172.322 90.533 166.174 81.8314 165.195 71.7894C164.516 66.3361 165.401 60.802 167.748 55.8329C169.383 52.4243 172.059 49.6243 175.391 47.8381C178.722 46.0519 182.536 45.3721 186.279 45.8973C189.838 46.1989 193.212 47.6125 195.923 49.9378C198.634 52.2632 200.545 55.3825 201.385 58.854C202.051 62.0157 202.541 65.2119 202.853 68.4279H168.408C167.77 77.5338 172.663 84.8525 179.599 86.6184C188.236 88.7459 195.619 85.0014 198.3 76.7891C198.895 74.6829 199.98 74.385 201.895 74.9807ZM168.408 65.5132H199.193C199.002 55.8116 192.96 48.7907 184.769 48.6843C175.493 48.5354 168.812 55.301 168.408 65.5132Z" fill="black"/>
<path d="M208.235 75.1935H211.256C211.368 77.4165 212.09 79.5657 213.344 81.4048C214.598 83.244 216.334 84.7019 218.362 85.6184C220.909 86.7646 223.682 87.3216 226.474 87.248C229.267 87.1743 232.006 86.4719 234.489 85.1929C235.842 84.5829 236.976 83.5724 237.737 82.298C238.498 81.0235 238.849 79.5463 238.744 78.0656C238.822 76.6377 238.432 75.2232 237.634 74.0369C236.835 72.8505 235.671 71.9569 234.319 71.4916C231 70.2576 227.468 69.5768 224.085 68.4917C220.566 67.4894 217.124 66.2308 213.788 64.726C208.342 62.0666 208.001 51.7055 214.171 48.429C217.33 46.6462 220.886 45.683 224.513 45.6273C228.14 45.5715 231.723 46.425 234.936 48.1099C236.882 49.1854 238.454 50.8286 239.442 52.8204C240.431 54.8122 240.788 57.058 240.468 59.2582H237.872C237.872 59.1306 237.638 59.0242 237.638 58.8965C237.319 50.6204 230.383 48.0674 222.937 48.7907C220.714 49.0649 218.555 49.7198 216.554 50.7268C215.352 51.2764 214.35 52.1857 213.687 53.329C213.024 54.4722 212.732 55.7932 212.852 57.1094C212.856 58.4262 213.267 59.7097 214.028 60.7838C214.79 61.8579 215.866 62.6701 217.107 63.1091C220.384 64.3005 223.809 65.0664 227.17 66.0025C229.872 66.7471 232.681 67.2365 235.298 68.13C237.145 68.7355 238.764 69.8876 239.942 71.4339C241.12 72.9802 241.8 74.8476 241.893 76.7891C242.209 78.9164 241.846 81.089 240.857 82.9986C239.868 84.9082 238.302 86.4576 236.383 87.4268C229.277 91.4479 217.575 90.3841 212.363 85.2993C211.042 83.9707 209.997 82.3936 209.288 80.6591C208.58 78.9246 208.222 77.067 208.235 75.1935Z" fill="black"/>
<path d="M280.189 59.2582H277.359C277.359 58.8753 277.21 58.5348 277.168 58.2157C277.122 56.0947 276.348 54.0538 274.977 52.4349C273.606 50.8159 271.721 49.7172 269.636 49.3226C265.703 48.1941 261.507 48.3961 257.701 49.897C256.196 50.3285 254.871 51.2349 253.924 52.4811C252.977 53.7273 252.458 55.2464 252.446 56.8115C252.393 58.3487 252.872 59.857 253.802 61.0818C254.732 62.3067 256.057 63.173 257.552 63.5346C261.807 64.8536 266.168 65.6621 270.487 66.8535C271.887 67.1894 273.265 67.6086 274.615 68.1088C276.63 68.8298 278.381 70.142 279.638 71.8739C280.896 73.6058 281.602 75.6768 281.664 77.8163C281.726 79.9558 281.142 82.0643 279.986 83.8662C278.831 85.6681 277.159 87.0795 275.189 87.9162C272.187 89.2795 268.933 90.0008 265.635 90.0338C262.338 90.0667 259.07 89.4107 256.041 88.1076C253.55 87.0333 251.448 85.2217 250.018 82.9166C248.588 80.6115 247.898 77.9237 248.042 75.2148H249.233H250.807C251.319 77.6833 252.425 79.9899 254.029 81.9349C255.633 83.8798 257.687 85.4045 260.013 86.3768C262.339 87.3491 264.867 87.7397 267.377 87.5149C269.888 87.2901 272.307 86.4566 274.423 85.0865C275.712 84.4168 276.782 83.3913 277.506 82.1319C278.23 80.8724 278.578 79.4316 278.508 77.9806C278.572 76.5517 278.168 75.141 277.358 73.9623C276.548 72.7835 275.376 71.9012 274.019 71.449C270.7 70.215 267.168 69.5555 263.785 68.4705C260.246 67.4836 256.783 66.2392 253.424 64.7473C248.105 62.1304 247.68 51.8544 253.743 48.578C256.942 46.7205 260.567 45.7227 264.265 45.6817C267.964 45.6406 271.61 46.5578 274.849 48.3439C276.701 49.4497 278.192 51.0701 279.14 53.0078C280.088 54.9456 280.452 57.1171 280.189 59.2582Z" fill="black"/>
<path d="M94.8588 88.831C93.7449 89.2528 92.5151 89.2519 91.4017 88.8285C90.2884 88.4052 89.3688 87.5886 88.8166 86.5333C85.3487 81.3421 81.5191 76.3849 77.8385 71.3213L76.2428 69.1938C71.8601 75.0658 67.4774 80.7038 63.4776 86.5545C62.9565 87.5632 62.0865 88.348 61.0297 88.7629C59.973 89.1778 58.8014 89.1944 57.7333 88.8097L74.1791 66.7471L58.8821 46.8121C59.9833 46.4145 61.1879 46.4091 62.2925 46.7967C63.3972 47.1843 64.3343 47.9412 64.9456 48.9396C68.4986 54.1308 72.4346 59.088 76.3492 64.343C80.2852 59.1306 84.1786 54.1521 87.8167 49.0035C88.3406 48.0112 89.2111 47.2462 90.2624 46.8539C91.3137 46.4616 92.4725 46.4695 93.5185 46.8759L87.5826 54.7478C84.9232 58.2583 82.3063 61.79 79.5405 65.2153C79.3177 65.4149 79.1394 65.6592 79.0173 65.9323C78.8953 66.2054 78.8322 66.5012 78.8322 66.8003C78.8322 67.0995 78.8953 67.3953 79.0173 67.6684C79.1394 67.9415 79.3177 68.1858 79.5405 68.3854C84.6253 75.1296 89.6676 81.8952 94.8588 88.831Z" fill="black"/>
<path d="M164.685 46.5994V49.5779C162.533 49.4368 160.375 49.7484 158.351 50.4927C156.327 51.237 154.482 52.3973 152.934 53.8989C151.387 55.4006 150.171 57.21 149.366 59.2105C148.561 61.211 148.184 63.3581 148.26 65.5132C148.26 72.5199 148.26 79.5266 148.26 86.5333C148.26 87.2779 148.26 88.0225 148.26 88.9161H145.218V46.7696H148.196V55.4074C151.877 49.1099 157.557 46.7696 164.685 46.5994Z" fill="black"/>
<path d="M18.3313 66.4706C18.778 64.343 19.0546 62.024 19.6716 59.8539C23.3523 46.7696 38.3514 41.3231 48.67 49.429C54.7122 54.1734 56.2227 60.8964 55.9249 68.4704H21.8842C21.3311 82.0016 31.0965 90.1713 43.5851 86.0014C45.611 85.2767 47.4245 84.059 48.8619 82.4581C50.2994 80.8572 51.3156 78.9236 51.8187 76.8317C52.4783 74.7041 53.542 74.3425 55.5632 74.9594C55.2303 77.5495 54.3145 80.0304 52.8847 82.2156C51.4549 84.4008 49.5483 86.2335 47.3083 87.5757C43.6073 89.5996 39.361 90.4014 35.1768 89.8665C30.9925 89.3315 27.0846 87.4872 24.0118 84.5972C20.9719 81.1792 19.1338 76.8604 18.778 72.3C18.778 71.5767 18.5015 70.8533 18.3525 70.1725C18.3384 68.9101 18.3313 67.6762 18.3313 66.4706ZM21.9268 65.5557H52.7123C52.5208 55.7478 46.3297 48.7907 38.0748 48.7269C28.8838 48.5992 22.3098 55.4074 21.9055 65.5132L21.9268 65.5557Z" fill="black"/>
</g>
<defs>
<clipPath id="clip0_306_617">
<rect width="300" height="150" fill="white"/>
</clipPath>
</defs>
</svg>
