<svg width="150" height="150" viewBox="0 0 150 150" fill="none" xmlns="http://www.w3.org/2000/svg">
<g clip-path="url(#clip0_306_622)">
<path d="M127.924 70.1015L79.8985 22.0762C79.2409 21.4183 78.4602 20.8964 77.6008 20.5403C76.7414 20.1842 75.8203 20.0009 74.8901 20.0009C73.9599 20.0009 73.0388 20.1842 72.1794 20.5403C71.3201 20.8964 70.5393 21.4183 69.8817 22.0762L59.9129 32.045L72.5629 44.695C75.5054 43.6637 78.8742 44.3684 81.2185 46.7128C82.3345 47.8308 83.1136 49.2401 83.4667 50.7798C83.8199 52.3194 83.7329 53.9274 83.2157 55.42L95.4085 67.6128C98.3579 66.5953 101.761 67.2519 104.116 69.6134C104.898 70.3964 105.519 71.3259 105.943 72.3488C106.366 73.3718 106.584 74.4681 106.584 75.5753C106.584 76.6824 106.366 77.7787 105.942 78.8015C105.518 79.8243 104.897 80.7536 104.114 81.5364C103.331 82.3192 102.402 82.94 101.379 83.3636C100.356 83.7871 99.2593 84.005 98.1522 84.0049C97.045 84.0047 95.9487 83.7865 94.9259 83.3626C93.9031 82.9388 92.9738 82.3177 92.191 81.5347C89.716 79.0597 89.1042 75.4159 90.3554 72.3669L78.9842 60.9956V90.919C79.8096 91.3275 80.564 91.8661 81.2185 92.514C82.0013 93.2968 82.6222 94.2261 83.0459 95.2488C83.4695 96.2715 83.6875 97.3677 83.6875 98.4747C83.6875 99.5817 83.4695 100.678 83.0459 101.701C82.6222 102.723 82.0013 103.653 81.2185 104.435C80.4358 105.218 79.5065 105.839 78.4838 106.263C77.4611 106.686 76.3649 106.904 75.2579 106.904C74.1509 106.904 73.0548 106.686 72.0321 106.263C71.0093 105.839 70.0801 105.218 69.2973 104.435C68.5136 103.653 67.8919 102.724 67.4677 101.701C67.0435 100.678 66.8251 99.5819 66.8251 98.4747C66.8251 97.3674 67.0435 96.271 67.4677 95.2482C67.8919 94.2254 68.5136 93.2963 69.2973 92.514C70.112 91.7028 71.016 91.0875 72.0576 90.675V60.4731C71.0539 60.0606 70.112 59.4522 69.2973 58.634C68.1137 57.4519 67.3089 55.944 66.9857 54.3026C66.6624 52.6613 66.8353 50.9608 67.4823 49.4181L55.0042 36.9469L22.0729 69.8437C21.4145 70.5014 20.8921 71.2824 20.5357 72.1421C20.1793 73.0018 19.9959 73.9233 19.9959 74.8539C19.9959 75.7845 20.1793 76.706 20.5357 77.5657C20.8921 78.4254 21.4145 79.2064 22.0729 79.864L70.1017 127.886C70.7593 128.544 71.5401 129.066 72.3994 129.422C73.2588 129.778 74.1799 129.961 75.1101 129.961C76.0403 129.961 76.9614 129.778 77.8208 129.422C78.6802 129.066 79.4609 128.544 80.1185 127.886L127.924 80.1562C128.582 79.4986 129.105 78.7176 129.461 77.8579C129.817 76.9982 130.001 76.0767 130.001 75.1461C130.001 74.2154 129.817 73.294 129.461 72.4343C129.105 71.5746 128.582 70.7936 127.924 70.1359" fill="#F03C2E"/>
</g>
<defs>
<clipPath id="clip0_306_622">
<rect width="110" height="110" fill="white" transform="translate(20 20)"/>
</clipPath>
</defs>
</svg>
