<svg width="150" height="150" viewBox="0 0 150 150" fill="none" xmlns="http://www.w3.org/2000/svg">
<g clip-path="url(#clip0_306_639)">
<path d="M43.2642 119.651L35.7569 35.4545H118.243L110.73 119.639L76.9474 129L43.2642 119.651Z" fill="#E44D26"/>
<path d="M104.296 114.278L110.718 42.3391H77V121.846L104.296 114.278Z" fill="#F16529"/>
<path d="M76.965 52.6645H51.1047L53.8907 83.8921H77V73.5667H63.3361L62.3919 62.9928H77V52.6645H76.965ZM77 100.351L76.9562 100.363L65.4556 97.2579L64.7247 89.0227H54.3526L55.7996 105.236L76.9533 111.083L77 111.068V100.351Z" fill="#EBEBEB"/>
<path d="M76.965 83.8921H89.6817L88.5123 97.2813L76.9942 100.389V111.132L98.1654 105.265L101.001 73.5609H77L76.965 83.8921ZM102.586 55.4359L102.831 52.6645H76.9591V62.9899H101.901L102.106 60.6688L102.586 55.4359Z" fill="white"/>
</g>
<path d="M42.3871 13H47.7194V18.2668H52.5961V13H57.9283V28.95H52.5961V23.6177H47.7194V28.95H42.3871V13ZM64.9389 18.2902H60.2362V13.0009H74.957V18.2902H70.2608V28.9519H64.9286V18.2902H64.9389ZM77.2938 13H82.8534L86.2735 18.6129L89.6899 13H95.242V28.95H89.9322V21.0433L86.2651 26.7151H86.1734L82.5194 21.0442V28.9509H77.3031L77.2938 13ZM97.9025 13H103.235V23.6879H110.733V28.9603H97.9034L97.9025 13Z" fill="black"/>
<defs>
<clipPath id="clip0_306_639">
<rect width="93.5484" height="93.5484" fill="white" transform="translate(30.2258 35.4516)"/>
</clipPath>
</defs>
</svg>
