<svg width="150" height="150" viewBox="0 0 150 150" fill="none" xmlns="http://www.w3.org/2000/svg">
<g clip-path="url(#clip0_306_600)">
<path d="M18 18H132V132H18V18Z" fill="#F7DF1E"/>
<path d="M47.9748 113.267L56.6989 107.987C58.3819 110.971 59.9129 113.496 63.5854 113.496C67.1056 113.496 69.325 112.119 69.325 106.763V70.337H80.0381V106.914C80.0381 118.01 73.534 123.061 64.0446 123.061C55.4745 123.061 50.4998 118.622 47.9746 113.266" fill="black"/>
<path d="M85.8571 112.119L94.5801 107.068C96.8764 110.818 99.8608 113.573 105.141 113.573C109.58 113.573 112.41 111.354 112.41 108.293C112.41 104.619 109.503 103.318 104.605 101.176L101.927 100.028C94.1979 96.7378 89.0706 92.6056 89.0706 83.8817C89.0706 75.8467 95.1924 69.7245 104.758 69.7245C111.569 69.7245 116.466 72.097 119.986 78.2955L111.645 83.6519C109.808 80.3616 107.819 79.0609 104.758 79.0609C101.621 79.0609 99.6312 81.0505 99.6312 83.6519C99.6312 86.866 101.621 88.1672 106.212 90.1569L108.89 91.3047C117.996 95.2077 123.124 99.1865 123.124 108.139C123.124 117.782 115.548 123.062 105.37 123.062C95.4224 123.062 88.9941 118.317 85.8571 112.119Z" fill="black"/>
</g>
<defs>
<clipPath id="clip0_306_600">
<rect width="114" height="114" fill="white" transform="translate(18 18)"/>
</clipPath>
</defs>
</svg>
