<svg width="150" height="150" viewBox="0 0 150 150" fill="none" xmlns="http://www.w3.org/2000/svg">
<g clip-path="url(#clip0_306_714)">
<path d="M122.838 74.1565C122.838 67.412 118.2 61.7368 111.976 60.1163L125.92 19H56.8175L70.793 60.2475C64.7625 61.9975 60.3192 67.5765 60.3192 74.1915C60.3192 79.0565 62.7692 83.3685 66.4477 86.0267C64.9882 88.1022 63.303 90.0168 61.3902 91.8315C57.7905 95.2038 53.8022 97.799 49.4902 99.514C45.5982 96.889 43.913 92.2515 45.4372 88.1005C51.3697 86.284 55.6835 80.74 55.6835 74.223C55.6835 66.2132 49.1665 59.7278 41.1882 59.7278C33.1785 59.7278 26.6632 66.2447 26.6632 74.2527C26.6652 78.0709 28.1812 81.7324 30.879 84.4342L30.1965 85.829C28.0265 90.3037 25.559 95.363 24.6192 101.054C22.738 112.403 25.8197 121.515 33.2467 126.671C37.4467 129.558 42.0317 131.016 46.9947 131.016C55.5225 131.016 64.1797 126.735 72.5447 122.584C78.5122 119.634 84.6722 116.554 90.736 115.059C92.976 114.508 95.3087 114.184 97.771 113.827C102.765 113.113 107.921 112.368 112.558 109.676C117.973 106.531 121.671 101.276 122.74 95.2458C123.55 90.6083 122.74 85.9393 120.664 81.853C122.059 79.613 122.834 76.988 122.834 74.1705L122.838 74.1565ZM116.515 74.1565C116.515 78.6645 112.851 82.329 108.343 82.329C103.835 82.329 100.17 78.6645 100.17 74.1565C100.17 72.697 100.559 71.304 101.238 70.1035C101.497 69.6485 101.822 69.1935 102.148 68.8085C102.486 68.4117 102.867 68.0531 103.283 67.7392L103.318 67.7042C103.577 67.5117 103.87 67.3157 104.162 67.1197C104.162 67.1197 104.197 67.1197 104.197 67.0847C104.326 67.02 104.456 66.922 104.585 66.8573C104.62 66.8573 104.65 66.8222 104.683 66.8222C104.813 66.7575 104.976 66.6927 105.138 66.6297C105.301 66.5667 105.462 66.5003 105.593 66.4373C105.628 66.4373 105.658 66.4022 105.691 66.4022C105.821 66.3672 105.95 66.3043 106.08 66.2728C106.115 66.2728 106.178 66.2378 106.209 66.2378L106.664 66.1398H106.699L107.186 66.0418C107.221 66.0418 107.284 66.0418 107.315 66.0068C107.445 66.0068 107.574 65.9717 107.704 65.9717H107.867C108.029 65.9717 108.19 65.9367 108.385 65.9367H108.805C108.925 65.9317 109.045 65.9429 109.162 65.97H109.226C109.485 66.005 109.744 66.0347 110.005 66.0995C111.847 66.4937 113.498 67.5066 114.683 68.9696C115.869 70.4327 116.518 72.2576 116.522 74.1408L116.515 74.1565ZM65.865 25.4855H116.872L105.165 60.02C104.678 60.118 104.192 60.279 103.705 60.44L91.3852 35.31L79.0302 60.279C78.5437 60.1162 78.0257 60.02 77.5077 59.922L65.865 25.4855ZM89.049 71.3355C88.433 68.287 86.879 65.564 84.674 63.5532L91.387 49.9995L98.1647 63.8455C96.1017 65.8856 94.6911 68.4925 94.1117 71.3355H89.049ZM72.8037 66.2115L73.2587 66.1135H73.3567C73.4862 66.0785 73.6157 66.0785 73.7452 66.0488H73.8747C74.0042 66.0488 74.1022 66.0137 74.2317 66.0137H75.497C75.6265 66.0137 75.7245 66.0488 75.8207 66.0488C75.8855 66.0488 75.9187 66.0488 75.9835 66.0838C76.113 66.1188 76.211 66.1187 76.3405 66.1485C76.3755 66.1485 76.4052 66.1485 76.47 66.1835L76.925 66.2815C77.0877 66.3165 77.2172 66.3462 77.345 66.411C77.38 66.411 77.4097 66.446 77.4745 66.446C77.5725 66.481 77.702 66.5108 77.7982 66.5755C77.8332 66.5755 77.863 66.6105 77.8962 66.6105C78.0257 66.6752 78.1552 66.7085 78.2847 66.7732H78.3197C78.4701 66.8294 78.612 66.9059 78.7415 67.0008C78.9042 67.0655 79.0337 67.1635 79.1615 67.2283C79.1965 67.2283 79.1965 67.2633 79.2262 67.2633C79.3557 67.328 79.4537 67.426 79.5832 67.4907L79.6182 67.5258C80.0067 67.818 80.3637 68.1418 80.7207 68.4655L80.7557 68.5005C81.0795 68.8575 81.4032 69.246 81.6657 69.6677C82.5356 70.9979 82.9979 72.5532 82.9957 74.1425C82.9957 78.6505 79.3312 82.315 74.8232 82.315C70.3152 82.315 66.6507 78.6505 66.6507 74.1425C66.6157 70.3485 69.2442 67.139 72.8107 66.2325L72.8037 66.2115ZM40.896 65.984C45.404 65.984 49.0685 69.6485 49.0685 74.1565C49.0685 78.6645 45.404 82.329 40.896 82.329C36.388 82.329 32.7235 78.6645 32.7235 74.1565C32.7235 69.6485 36.388 65.984 40.896 65.984ZM116.321 94.0977C115.607 98.2487 113.048 101.88 109.286 104.052C105.751 106.094 101.406 106.743 96.8347 107.394C94.3375 107.751 91.7107 108.14 89.182 108.756C82.4375 110.41 75.952 113.652 69.6607 116.766C61.6195 120.756 54.0332 124.514 46.9947 124.514C43.3302 124.514 40.056 123.477 36.9427 121.305C29.8097 116.377 30.165 107.135 31.0102 102.076C31.789 97.3423 33.9607 92.899 36.0362 88.6535C36.1657 88.3945 36.2637 88.167 36.3932 87.908C37.1072 88.167 37.8527 88.363 38.6332 88.4925C37.4012 95.3665 40.903 102.468 47.7122 105.97L48.9442 106.617L50.2742 106.131C55.9495 104.118 61.2012 100.846 65.8387 96.4672C68.4008 94.0783 70.6653 91.3889 72.5832 88.4575C73.3287 88.587 74.0742 88.6203 74.8232 88.6203C81.5677 88.6203 87.243 83.9828 88.8635 77.758H94.3112C95.9317 84.016 101.609 88.6203 108.351 88.6203C110.931 88.6209 113.463 87.9262 115.68 86.6095C116.524 89.0595 116.783 91.5708 116.328 94.0995L116.321 94.0977Z" fill="#99424F"/>
</g>
<defs>
<clipPath id="clip0_306_714">
<rect width="112" height="112" fill="white" transform="translate(19 19)"/>
</clipPath>
</defs>
</svg>
