<svg width="150" height="150" viewBox="0 0 150 150" fill="none" xmlns="http://www.w3.org/2000/svg">
<path fill-rule="evenodd" clip-rule="evenodd" d="M77.8308 135.217L74.6317 134.122C74.6317 134.122 75.0222 117.781 69.17 116.609C65.2685 112.074 69.7942 -75.7224 83.8393 115.983C83.8393 115.983 79.0019 118.407 78.1433 122.551C77.2066 126.616 77.8308 135.217 77.8308 135.217Z" fill="white"/>
<path fill-rule="evenodd" clip-rule="evenodd" d="M77.8308 135.217L74.6317 134.122C74.6317 134.122 75.0222 117.781 69.17 116.609C65.2685 112.074 69.7942 -75.7224 83.8393 115.983C83.8393 115.983 79.0019 118.407 78.1433 122.551C77.2066 126.616 77.8308 135.217 77.8308 135.217Z" fill="#A6A385"/>
<path fill-rule="evenodd" clip-rule="evenodd" d="M79.5479 119.423C79.5479 119.423 107.561 100.972 101.006 62.5837C94.6859 34.6726 79.7815 25.5252 78.1432 22.0067C76.3487 19.505 74.6316 15.1269 74.6316 15.1269L75.8026 92.7625C75.8026 92.8408 73.3832 116.53 79.5479 119.423Z" fill="white"/>
<path fill-rule="evenodd" clip-rule="evenodd" d="M79.5479 119.423C79.5479 119.423 107.561 100.972 101.006 62.5837C94.6859 34.6726 79.7815 25.5252 78.1432 22.0067C76.3487 19.505 74.6316 15.1269 74.6316 15.1269L75.8026 92.7625C75.8026 92.8408 73.3832 116.53 79.5479 119.423Z" fill="#499D4A"/>
<path fill-rule="evenodd" clip-rule="evenodd" d="M72.9934 120.44C72.9934 120.44 46.6969 102.457 48.2578 70.7934C49.7399 39.1289 68.3114 23.5707 71.9004 20.7558C74.2418 18.2541 74.3199 17.3156 74.4761 14.8139C76.1144 18.3324 75.8027 67.4314 76.0363 73.2168C76.7386 95.499 74.7879 116.218 72.9934 120.44Z" fill="white"/>
<path fill-rule="evenodd" clip-rule="evenodd" d="M72.9934 120.44C72.9934 120.44 46.6969 102.457 48.2578 70.7934C49.7399 39.1289 68.3114 23.5707 71.9004 20.7558C74.2418 18.2541 74.3199 17.3156 74.4761 14.8139C76.1144 18.3324 75.8027 67.4314 76.0363 73.2168C76.7386 95.499 74.7879 116.218 72.9934 120.44Z" fill="#58AA50"/>
</svg>
