<svg width="150" height="150" viewBox="0 0 150 150" fill="none" xmlns="http://www.w3.org/2000/svg">
<path d="M70.128 18.5479C73.028 16.9057 76.7255 16.8985 79.553 18.5479L122.85 42.955C125.558 44.4775 127.37 47.4971 127.345 50.6183V99.5557C127.363 102.807 125.373 105.892 122.517 107.386L79.4515 131.68C77.9785 132.494 76.3145 132.899 74.6322 132.853C72.95 132.806 71.3108 132.31 69.8851 131.416L56.962 123.948C56.0811 123.423 55.0915 123.006 54.468 122.154C55.019 121.414 55.9978 121.32 56.7953 120.994C58.5933 120.421 60.239 119.544 61.892 118.616C62.3089 118.326 62.82 118.435 63.2188 118.696L74.2388 125.068C75.0254 125.522 75.8229 124.923 76.4971 124.543L118.783 100.679C119.305 100.426 119.595 99.8747 119.551 99.302V50.8357C119.609 50.1832 119.236 49.5888 118.645 49.3241L75.6888 25.1345C75.4412 24.9633 75.1475 24.8713 74.8465 24.8706C74.5455 24.87 74.2514 24.9607 74.0031 25.1309L31.1085 49.3713C30.5285 49.6359 30.1298 50.2231 30.2023 50.8756V99.3419C30.1515 99.9146 30.456 100.455 30.9816 100.701L42.4439 107.172C44.5971 108.332 47.2398 108.984 49.6105 108.132C50.648 107.742 51.5411 107.043 52.1702 106.13C52.7993 105.217 53.1344 104.134 53.1304 103.025L53.1413 54.8486C53.0905 54.1345 53.7648 53.5436 54.4571 53.6161H59.9671C60.6921 53.598 61.2613 54.3665 61.1634 55.0842L61.1525 103.565C61.1561 107.871 59.3871 112.555 55.4033 114.668C50.495 117.206 44.4268 116.673 39.5765 114.233L27.2515 107.418C24.3515 105.968 22.4049 102.836 22.423 99.5884V50.6509C22.4351 49.0603 22.8723 47.5019 23.6895 46.1373C24.5066 44.7726 25.6739 43.6514 27.0703 42.8897L70.128 18.5479ZM82.6125 52.4706C88.8729 52.1081 95.5755 52.2314 101.209 55.3162C105.57 57.6797 107.988 62.6388 108.067 67.489C107.944 68.1415 107.263 68.504 106.639 68.4569C104.827 68.4532 103.007 68.4823 101.187 68.446C100.415 68.475 99.969 67.7645 99.8711 67.083C99.3491 64.763 98.084 62.4684 95.9018 61.3483C92.5523 59.6699 88.6663 59.7533 85.0123 59.7895C82.3443 59.9345 79.4769 60.1629 77.2185 61.7289C75.4785 62.9179 74.9565 65.3539 75.5764 67.2461C76.1564 68.6345 77.7623 69.0804 79.0709 69.4936C86.6181 71.4656 94.6113 71.3061 102.017 73.869C105.08 74.9275 108.078 76.9865 109.129 80.1946C110.5 84.4939 109.902 89.6341 106.846 93.0851C104.366 95.9271 100.756 97.4351 97.1488 98.3124C92.3529 99.3817 87.3794 99.4071 82.511 98.9286C77.9326 98.4066 73.1694 97.2031 69.635 94.0856C66.6118 91.4611 65.14 87.3721 65.285 83.4281C65.3213 82.7611 65.9846 82.2971 66.6263 82.3515H72.0638C72.796 82.3007 73.3325 82.9315 73.3688 83.6202C73.7059 85.7952 74.536 88.1515 76.4645 89.4202C80.1838 91.82 84.8491 91.6533 89.1049 91.7221C92.632 91.5663 96.5905 91.5191 99.4724 89.1846C100.995 87.8542 101.441 85.6321 101.031 83.7181C100.585 82.1014 98.8561 81.351 97.4061 80.8181C89.9568 78.4619 81.873 79.3174 74.4961 76.6494C71.5019 75.5909 68.6055 73.5899 67.4564 70.5123C65.8505 66.1623 66.5864 60.7719 69.9685 57.4369C73.231 54.12 78.016 52.8404 82.5473 52.3836L82.6125 52.4706Z" fill="#8CC84B"/>
</svg>
