<svg width="150" height="150" viewBox="0 0 150 150" fill="none" xmlns="http://www.w3.org/2000/svg">
<g clip-path="url(#clip0_306_582)">
<g clip-path="url(#clip1_306_582)">
<path d="M133.242 64.8526C133.242 57.1116 123.494 49.7744 108.557 45.2275C112.003 30.0785 110.472 18.0315 103.722 14.1717C102.163 13.2651 100.347 12.8402 98.3607 12.8402V18.1519C99.4643 18.1519 100.347 18.3644 101.088 18.7681C104.342 20.6236 105.758 27.6989 104.655 36.7996C104.391 39.0376 103.964 41.396 103.437 43.804C98.7452 42.6637 93.6188 41.7785 88.2361 41.2048C85.0036 36.7996 81.6501 32.7981 78.2752 29.2995C86.0787 22.0826 93.4052 18.1307 98.3892 18.1307V12.819C91.8032 12.819 83.188 17.4862 74.4731 25.5812C65.744 17.5287 57.1288 12.911 50.5428 12.911V18.2227C55.4983 18.2227 62.8462 22.1534 70.6568 29.3207C67.3033 32.8194 63.9498 36.7996 60.7671 41.2048C55.3559 41.7785 50.2295 42.6567 45.5374 43.8252C44.9892 41.4456 44.5762 39.1368 44.2914 36.92C43.1665 27.8193 44.5549 20.7511 47.7874 18.8672C48.5065 18.4352 49.4392 18.2511 50.5428 18.2511V12.9394C48.535 12.9394 46.7122 13.3714 45.1316 14.2708C38.4032 18.1307 36.8938 30.1564 40.3683 45.2559C25.4733 49.831 15.783 57.14 15.783 64.8526C15.783 72.5935 25.5302 79.9308 40.468 84.4776C37.0219 99.6266 38.5527 111.674 45.3025 115.533C46.8618 116.44 48.6774 116.865 50.6923 116.865C57.2783 116.865 65.8935 112.198 74.6084 104.103C83.3233 112.155 91.9456 116.773 98.5245 116.773C100.532 116.773 102.355 116.341 103.936 115.441C110.664 111.582 112.174 99.5558 108.699 84.4564C123.544 79.9024 133.242 72.5652 133.242 64.8526ZM102.063 48.967C101.18 52.0407 100.077 55.2065 98.8306 58.3723C97.8481 56.4671 96.8228 54.562 95.6978 52.6569C94.5942 50.7517 93.4266 48.8962 92.2518 47.0831C95.648 47.5859 98.9303 48.2021 102.063 48.967ZM91.0983 74.3287C89.2329 77.544 87.3176 80.5894 85.3311 83.4294C81.764 83.741 78.147 83.9039 74.5087 83.9039C70.8918 83.9039 67.2748 83.734 63.7362 83.4507C61.7497 80.6178 59.8059 77.5936 57.9405 74.3995C56.1178 71.2833 54.4659 68.1104 52.9636 64.9234C54.4517 61.7293 56.1249 58.5422 57.9191 55.419C59.7846 52.2036 61.6998 49.1582 63.6863 46.3182C67.2534 46.0066 70.8704 45.8437 74.5087 45.8437C78.1257 45.8437 81.7426 46.0137 85.2813 46.297C87.2678 49.1299 89.2115 52.154 91.077 55.3481C92.8997 58.4643 94.5515 61.6372 96.0538 64.8242C94.5515 68.0184 92.8997 71.2125 91.0983 74.3287ZM98.8306 71.2337C100.091 74.3358 101.187 77.5015 102.134 80.7098C98.9944 81.4747 95.6907 82.1121 92.2731 82.615C93.4479 80.7806 94.6156 78.8968 95.7192 76.9704C96.8228 75.0652 97.8552 73.1389 98.8306 71.2337ZM74.5586 96.645C72.33 94.3574 70.1086 91.8078 67.9014 89.0244C70.0587 89.1165 72.2588 89.1944 74.4874 89.1944C76.7373 89.1944 78.9658 89.1448 81.1446 89.0244C79.0869 91.6803 76.8868 94.2228 74.5586 96.645ZM56.7443 82.615C53.3481 82.1121 50.0658 81.496 46.9258 80.7311C47.8087 77.6574 48.9123 74.4916 50.1583 71.3258C51.1409 73.2309 52.1662 75.1361 53.2911 77.0412C54.4232 78.9463 55.5695 80.809 56.7443 82.615ZM74.4375 33.0601C76.6661 35.3477 78.8875 37.8974 81.0947 40.6807C78.9374 40.5886 76.7373 40.5107 74.5087 40.5107C72.2588 40.5107 70.0302 40.5603 67.8515 40.6807C69.9092 38.0178 72.1093 35.4752 74.4375 33.0601ZM56.723 47.0831C55.5482 48.9174 54.3805 50.8013 53.2769 52.7277C52.1733 54.6328 51.148 56.538 50.1654 58.4431C48.9052 55.341 47.8087 52.1753 46.8618 48.967C49.9946 48.2304 53.2982 47.5859 56.723 47.0831ZM35.0497 76.8996C26.5769 73.3017 21.0945 68.5849 21.0945 64.8455C21.0945 61.106 26.5769 56.368 35.0497 52.7985C37.1074 51.9203 39.3573 51.1342 41.6784 50.3905C43.0454 55.0578 44.8397 59.9162 47.0682 64.8951C44.8682 69.8456 43.0953 74.6828 41.7496 79.3288C39.3858 78.5922 37.1358 77.7848 35.0497 76.8996ZM47.9298 110.93C44.6759 109.074 43.259 101.999 44.3626 92.8984C44.6261 90.6604 45.0533 88.302 45.5802 85.8941C50.2722 87.0343 55.3986 87.9196 60.7814 88.4933C64.0138 92.8985 67.3674 96.8999 70.7422 100.399C62.9387 107.615 55.6122 111.567 50.6282 111.567C49.5602 111.553 48.6489 111.341 47.9298 110.93ZM104.726 92.7851C105.851 101.886 104.463 108.954 101.23 110.838C100.511 111.27 99.5782 111.454 98.4746 111.454C93.5191 111.454 86.1713 107.523 78.3606 100.356C81.7142 96.8575 85.0677 92.8772 88.2503 88.472C93.6615 87.8983 98.7879 87.0201 103.48 85.8516C104.028 88.2595 104.463 90.5684 104.726 92.7851ZM113.939 76.8996C111.882 77.7778 109.632 78.5639 107.311 79.3075C105.944 74.6403 104.149 69.7818 101.921 64.803C104.121 59.8525 105.894 55.0153 107.239 50.3693C109.61 51.1058 111.86 51.9203 113.968 52.7985C122.441 56.3963 127.923 61.1131 127.923 64.8455C127.902 68.592 122.419 73.3301 113.939 76.8996Z" fill="#61DAFB"/>
<path d="M74.4874 75.731C80.5322 75.731 85.4308 70.8584 85.4308 64.8455C85.4308 58.8326 80.5322 53.96 74.4874 53.96C68.4425 53.96 63.5439 58.8326 63.5439 64.8455C63.5439 70.8584 68.4425 75.731 74.4874 75.731ZM21.1158 135.605H17.506V141.795H15.4697V126.497H20.5605C22.2906 126.497 23.6221 126.886 24.5548 127.673C25.4946 128.459 25.9574 129.599 25.9574 131.093C25.9574 132.049 25.694 132.878 25.1742 133.586C24.6616 134.294 23.9425 134.826 23.0169 135.173L26.6267 141.667V141.795H24.448L21.1158 135.605ZM17.4989 133.955H20.6174C21.6214 133.955 22.4259 133.692 23.0169 133.175C23.615 132.658 23.914 131.964 23.914 131.093C23.914 130.151 23.6292 129.422 23.0596 128.919C22.4971 128.416 21.6783 128.161 20.6103 128.154H17.506L17.4989 133.955ZM33.2341 142C31.6819 142 30.4217 141.497 29.4534 140.484C28.485 139.472 27.9938 138.112 27.9938 136.419V136.065C27.9938 134.939 28.2074 133.933 28.6346 133.048C29.0689 132.156 29.6741 131.462 30.4502 130.966C31.2334 130.463 32.0735 130.208 32.9849 130.208C34.473 130.208 35.6264 130.697 36.4523 131.667C37.2782 132.637 37.6912 134.032 37.6912 135.845V136.653H29.9518C29.9802 137.772 30.3078 138.678 30.9343 139.372C31.568 140.059 32.3726 140.399 33.3409 140.399C34.0315 140.399 34.6154 140.258 35.0924 139.982C35.5694 139.698 35.9895 139.33 36.3526 138.87L37.5488 139.804C36.5876 141.271 35.1494 142 33.2341 142ZM32.992 131.809C32.2017 131.809 31.5395 132.099 31.0055 132.673C30.4715 133.239 30.1369 134.04 30.0158 135.066H35.7403V134.918C35.6834 133.933 35.4199 133.168 34.9358 132.63C34.4587 132.085 33.8108 131.809 32.992 131.809ZM47.0184 141.788C46.9045 141.561 46.8119 141.164 46.7407 140.591C45.8294 141.525 44.7471 142 43.4869 142C42.3619 142 41.4363 141.681 40.7101 141.051C39.991 140.414 39.635 139.606 39.635 138.636C39.635 137.453 40.0835 136.532 40.9878 135.881C41.8991 135.222 43.1736 134.896 44.8112 134.896H46.7122V134.004C46.7122 133.324 46.5058 132.786 46.0999 132.389C45.6941 131.986 45.0889 131.78 44.2914 131.78C43.5937 131.78 43.0098 131.957 42.5399 132.304C42.07 132.651 41.835 133.076 41.835 133.572H39.8699C39.8699 133.005 40.0693 132.46 40.4751 131.936C40.881 131.405 41.4363 130.987 42.1198 130.675C42.8176 130.371 43.5794 130.215 44.4125 130.215C45.7297 130.215 46.7621 130.541 47.5097 131.2C48.2573 131.851 48.6418 132.751 48.6702 133.898V139.132C48.6702 140.173 48.8055 141.008 49.069 141.625V141.795L47.0184 141.788ZM43.7788 140.307C44.3911 140.307 44.975 140.152 45.5232 139.833C46.0714 139.514 46.4702 139.11 46.7194 138.601V136.27H45.1886C42.7962 136.27 41.6001 136.964 41.6001 138.36C41.6001 138.969 41.8066 139.443 42.2124 139.79C42.6111 140.137 43.138 140.307 43.7788 140.307ZM56.31 140.414C57.0078 140.414 57.613 140.201 58.1398 139.783C58.6596 139.365 58.9515 138.841 59.0085 138.211H60.8597C60.8241 138.863 60.5962 139.479 60.1833 140.074C59.7703 140.661 59.215 141.129 58.5172 141.483C57.8266 141.83 57.0932 142.007 56.3171 142.007C54.7578 142.007 53.519 141.49 52.6005 140.463C51.682 139.429 51.2263 138.013 51.2263 136.221V135.895C51.2263 134.79 51.4328 133.806 51.8386 132.942C52.2445 132.078 52.8283 131.412 53.5902 130.937C54.3591 130.463 55.2634 130.222 56.3029 130.222C57.5845 130.222 58.6454 130.605 59.4926 131.369C60.347 132.134 60.7956 133.126 60.8526 134.344H59.0014C58.9444 133.607 58.6667 133.005 58.1541 132.538C57.6557 132.064 57.0362 131.823 56.2958 131.823C55.3061 131.823 54.53 132.177 53.9818 132.892C53.4406 133.6 53.1701 134.627 53.1701 135.973V136.341C53.1701 137.651 53.4406 138.657 53.9818 139.365C54.53 140.059 55.3061 140.414 56.31 140.414ZM65.7013 127.673V130.428H67.8373V131.929H65.7013V138.976C65.7013 139.429 65.7938 139.776 65.9861 140.003C66.1783 140.229 66.4987 140.343 66.9544 140.343C67.1822 140.343 67.4884 140.3 67.88 140.215V141.788C67.3674 141.929 66.869 142 66.3777 142C65.5019 142 64.8469 141.738 64.4054 141.214C63.964 140.69 63.7433 139.946 63.7433 138.976V131.929H61.6642V130.428H63.7433V127.673H65.7013ZM87.6166 141.788H85.5803L77.8409 130.003V141.788H75.8046V126.49H77.8409L85.6017 138.331V126.49H87.6166V141.788ZM97.962 141.788C97.8481 141.561 97.7555 141.164 97.6843 140.591C96.773 141.525 95.6907 142 94.4305 142C93.3055 142 92.3799 141.681 91.6537 141.051C90.9346 140.414 90.5786 139.606 90.5786 138.636C90.5786 137.453 91.0271 136.532 91.9314 135.881C92.8427 135.222 94.1172 134.896 95.7548 134.896H97.6558V134.004C97.6558 133.324 97.4494 132.786 97.0435 132.389C96.6377 131.986 96.0325 131.78 95.235 131.78C94.5373 131.78 93.9534 131.957 93.4835 132.304C93.0136 132.651 92.7786 133.076 92.7786 133.572H90.8135C90.8135 133.005 91.0129 132.46 91.4187 131.936C91.8246 131.405 92.3799 130.987 93.0634 130.675C93.7612 130.371 94.523 130.215 95.3561 130.215C96.6733 130.215 97.7057 130.541 98.4533 131.2C99.2009 131.851 99.5854 132.751 99.6138 133.898V139.132C99.6138 140.173 99.7491 141.008 100.013 141.625V141.795L97.962 141.788ZM94.7224 140.307C95.3347 140.307 95.9186 140.152 96.4668 139.833C97.015 139.514 97.4138 139.11 97.663 138.601V136.27H96.1322C93.7398 136.27 92.5437 136.964 92.5437 138.36C92.5437 138.969 92.7502 139.443 93.156 139.79C93.5547 140.137 94.0816 140.307 94.7224 140.307ZM105.324 127.673V130.428H107.46V131.929H105.324V138.976C105.324 139.429 105.417 139.776 105.609 140.003C105.801 140.229 106.122 140.343 106.577 140.343C106.805 140.343 107.111 140.3 107.51 140.215V141.788C106.997 141.929 106.499 142 106.008 142C105.132 142 104.477 141.738 104.035 141.214C103.594 140.69 103.373 139.946 103.373 138.976V131.929H101.294V130.428H103.373V127.673H105.324ZM111.874 141.788H109.924V130.42H111.874V141.788ZM109.76 127.41C109.76 127.099 109.852 126.83 110.045 126.61C110.244 126.391 110.529 126.284 110.913 126.284C111.291 126.284 111.583 126.391 111.782 126.61C111.981 126.83 112.081 127.092 112.081 127.41C112.081 127.729 111.981 127.991 111.782 128.197C111.583 128.409 111.298 128.515 110.913 128.515C110.536 128.515 110.244 128.409 110.045 128.197C109.86 127.984 109.76 127.722 109.76 127.41ZM118.781 139.153L121.608 130.42H123.601L119.5 141.788H118.012L113.875 130.42H115.869L118.781 139.153ZM130.08 142C128.528 142 127.268 141.497 126.3 140.484C125.331 139.472 124.84 138.112 124.84 136.419V136.065C124.84 134.939 125.054 133.933 125.481 133.048C125.915 132.156 126.52 131.462 127.296 130.966C128.08 130.463 128.92 130.208 129.831 130.208C131.319 130.208 132.473 130.697 133.299 131.667C134.124 132.637 134.537 134.032 134.537 135.845V136.653H126.798C126.826 137.772 127.154 138.678 127.781 139.372C128.414 140.059 129.219 140.399 130.187 140.399C130.878 140.399 131.462 140.258 131.939 139.982C132.416 139.698 132.836 139.33 133.199 138.87L134.395 139.797C133.434 141.271 131.996 142 130.08 142ZM129.838 131.809C129.048 131.809 128.386 132.099 127.852 132.673C127.318 133.239 126.983 134.04 126.862 135.066H132.587V134.918C132.53 133.933 132.266 133.168 131.782 132.63C131.305 132.085 130.657 131.809 129.838 131.809Z" fill="#61DAFB"/>
</g>
</g>
<defs>
<clipPath id="clip0_306_582">
<rect width="150" height="150" fill="white"/>
</clipPath>
<clipPath id="clip1_306_582">
<rect width="178" height="142" fill="white" transform="translate(-14)"/>
</clipPath>
</defs>
</svg>
