<svg width="150" height="150" viewBox="0 0 150 150" fill="none" xmlns="http://www.w3.org/2000/svg">
<path d="M114.352 55.9687C113.112 55.5374 111.764 55.1061 110.416 54.7287C110.632 53.8122 110.848 52.9496 111.009 52.033C113.974 37.6383 112.034 25.993 105.403 22.2191C99.0422 18.553 88.6383 22.3809 78.1805 31.4922C77.1563 32.3548 76.1859 33.3252 75.1617 34.2957C74.4609 33.6487 73.8141 33.0017 73.1672 32.4087C62.1703 22.6504 51.1195 18.4991 44.543 22.3809C38.182 26.047 36.2953 36.9913 38.9906 50.6313C39.2602 51.9252 39.5297 53.273 39.907 54.6748C38.3438 55.1061 36.8344 55.5913 35.3789 56.0765C22.4953 60.5513 14.2477 67.6139 14.2477 74.9461C14.2477 82.4939 23.0883 90.0417 36.5109 94.6783C37.5891 95.0557 38.6672 95.3791 39.7992 95.7026C39.4219 97.1583 39.0984 98.6139 38.8289 100.07C36.2953 113.494 38.2898 124.169 44.5969 127.781C51.1195 131.555 62.1164 127.673 72.7899 118.346C73.6524 117.591 74.4609 116.837 75.3234 116.028C76.4016 117.106 77.5336 118.077 78.6117 119.047C88.9617 127.943 99.2039 131.555 105.511 127.889C112.034 124.115 114.19 112.685 111.387 98.7217C111.171 97.6435 110.955 96.5652 110.632 95.487C111.387 95.2713 112.141 95.0017 112.896 94.7861C126.858 90.1496 135.968 82.6557 135.968 75.0539C136.022 67.56 127.505 60.4974 114.352 55.9687ZM81.6305 35.4278C90.6328 27.6104 99.0422 24.5374 102.87 26.6939C106.966 29.0661 108.53 38.5548 105.996 50.9548C105.834 51.7635 105.673 52.5722 105.457 53.3809C100.39 52.1948 94.8914 51.3322 89.1774 50.793C85.8352 46.0487 82.3852 41.6817 78.8813 37.9617C79.7438 37.0991 80.7141 36.2365 81.6305 35.4278ZM52.9523 75.0539C54.5156 71.7652 56.2406 68.4765 58.1273 65.2417C60.0141 61.953 62.0086 58.8261 64.057 55.8609C67.6688 55.5913 71.3883 55.4296 75.1617 55.4296C78.9352 55.4296 82.6547 55.5913 86.2664 55.8609C88.2609 58.8261 90.2555 61.953 92.1422 65.2417C94.0289 68.5304 95.8078 71.8191 97.3711 75C95.8078 78.2348 94.0289 81.5774 92.1422 84.8661C90.2555 88.1548 88.2609 91.3357 86.3203 94.3009C82.7086 94.5704 78.9891 94.6783 75.1617 94.6783C71.3883 94.6783 67.6688 94.5704 64.1109 94.3548C62.0625 91.3356 60.068 88.1548 58.1813 84.92C56.2406 81.5774 54.5156 78.2887 52.9523 75.0539ZM50.2031 81.1461C51.2813 83.2487 52.4672 85.3513 53.6531 87.4539C54.893 89.6104 56.1867 91.6591 57.4805 93.7078C53.4914 93.2765 49.718 92.6835 46.268 91.9287C47.2922 88.4243 48.6398 84.8122 50.2031 81.1461ZM50.1492 68.9078C48.6398 65.2957 47.3461 61.7913 46.268 58.3409C49.718 57.5861 53.4375 56.9391 57.3188 56.4539C56.025 58.4487 54.7852 60.4974 53.5992 62.6C52.4133 64.7026 51.2813 66.8052 50.1492 68.9078ZM96.6164 87.4C97.8563 85.2435 99.0422 83.087 100.174 80.9304C101.791 84.6504 103.193 88.2087 104.271 91.6591C100.713 92.4678 96.9399 93.1148 92.8969 93.6C94.1367 91.6052 95.3766 89.5565 96.6164 87.4ZM100.12 68.9078C99.0422 66.8052 97.8563 64.7026 96.6164 62.5461C95.4305 60.4435 94.1906 58.4487 92.8969 56.4539C96.7781 56.9391 100.498 57.5861 104.002 58.3948C102.977 61.7913 101.63 65.2957 100.12 68.9078ZM75.1617 41.7357C77.5875 44.3235 79.9594 47.2348 82.3313 50.4157C79.9594 50.3078 77.5336 50.2539 75.1078 50.2539C72.682 50.2539 70.3102 50.3078 67.9383 50.4157C70.3102 47.2348 72.7359 44.3235 75.1617 41.7357ZM47.1305 26.8557C51.2274 24.4835 60.2297 27.88 69.7172 36.2904C70.3102 36.8296 70.957 37.3687 71.55 37.9617C67.9922 41.7357 64.4883 46.1026 61.2 50.793C55.4859 51.3322 49.9875 52.1948 44.9203 53.327C44.5969 52.033 44.3273 50.793 44.0578 49.553C41.7938 37.9078 43.3031 29.0661 47.1305 26.8557ZM41.2008 90.6348C40.1766 90.3113 39.1523 90.0417 38.182 89.7183C32.2523 87.6696 27.3469 85.0278 23.9508 82.1704C20.932 79.5826 19.4227 76.9948 19.4227 74.9461C19.4227 70.5252 26.0531 64.8644 37.05 60.9826C38.3977 60.4974 39.7992 60.0661 41.2547 59.6887C42.7641 64.6487 44.7586 69.8244 47.1844 75.0539C44.7586 80.3374 42.7102 85.6209 41.2008 90.6348ZM69.3938 114.357C64.65 118.508 59.9063 121.419 55.7555 122.875C51.982 124.223 49.0172 124.223 47.2383 123.198C43.4109 120.988 41.7938 112.416 44.0039 100.932C44.2734 99.6383 44.543 98.2904 44.8664 96.8887C49.8797 97.967 55.3781 98.7757 61.3078 99.2609C64.7039 104.005 68.2078 108.372 71.7656 112.2C70.9031 112.955 70.1484 113.71 69.3938 114.357ZM75.3234 108.48C72.8438 105.838 70.418 102.873 67.9922 99.6922C70.3102 99.8 72.682 99.8539 75.1078 99.8539C77.5875 99.8539 80.0672 99.8 82.4391 99.6922C80.1211 102.927 77.6953 105.838 75.3234 108.48ZM106.913 115.704C106.212 119.64 104.702 122.228 102.923 123.252C99.0961 125.463 90.9024 122.605 82.0078 114.95C80.9836 114.087 79.9594 113.17 78.9352 112.146C82.3852 108.372 85.7813 104.005 89.1234 99.207C94.9992 98.6678 100.552 97.8052 105.619 96.673C105.888 97.6974 106.104 98.6678 106.266 99.6383C107.559 105.784 107.721 111.391 106.913 115.704ZM111.333 89.7183C110.686 89.9339 109.985 90.1496 109.284 90.3652C107.721 85.4591 105.673 80.2835 103.139 74.9461C105.565 69.7165 107.559 64.5948 109.069 59.7426C110.309 60.12 111.548 60.4974 112.68 60.8748C123.947 64.7565 130.847 70.4713 130.847 74.8922C130.793 79.6365 123.408 85.7287 111.333 89.7183Z" fill="#53C1DE"/>
<path d="M77.6047 85.4877C83.4574 84.1055 87.0816 78.2399 85.6996 72.3865C84.3177 66.5331 78.4528 62.9084 72.6001 64.2905C66.7474 65.6727 63.1232 71.5383 64.5052 77.3917C65.8872 83.2452 71.752 86.8698 77.6047 85.4877Z" fill="#53C1DE"/>
</svg>
