<svg width="150" height="150" viewBox="0 0 150 150" fill="none" xmlns="http://www.w3.org/2000/svg">
<g clip-path="url(#clip0_306_594)">
<path d="M99.7692 99.6489C104.604 99.1442 108.271 94.9384 108.104 89.8914C107.938 84.8445 103.77 80.8069 98.7689 80.8069H98.4355C93.2677 80.9751 89.2669 85.3492 89.4336 90.5643C89.6003 93.0878 90.6005 95.2748 92.1008 96.7889C86.4329 108.06 77.7644 116.304 64.7615 123.201C55.9263 127.912 46.7576 129.594 37.5889 128.417C30.0873 127.407 24.2527 124.043 20.5852 118.491C15.2507 110.247 14.7506 101.331 19.2516 92.4149C22.419 86.0221 27.4201 81.3116 30.5874 78.9563C29.9206 76.7693 28.9204 73.0682 28.4203 70.3765C4.24834 88.0409 6.74888 111.93 14.0838 123.201C19.585 131.613 30.7541 136.828 43.0901 136.828C46.4242 136.828 49.7583 136.492 53.0923 135.651C74.4303 131.445 90.6005 118.659 99.7692 99.6489ZM129.109 78.7881C116.439 63.8155 97.7687 55.5721 76.4307 55.5721H73.7635C72.2632 52.5439 69.0958 50.5251 65.595 50.5251H65.2616C60.0938 50.6934 56.093 55.0674 56.2597 60.2826C56.4264 65.3295 60.594 69.3671 65.595 69.3671H65.9284C69.5959 69.1989 72.7633 66.8436 74.0969 63.6472H77.0975C89.767 63.6472 101.77 67.3483 112.605 74.5823C120.94 80.134 126.942 87.3679 130.276 96.116C133.11 103.182 132.943 110.079 129.942 115.967C125.275 124.884 117.44 129.762 107.104 129.762C100.436 129.762 94.1013 127.744 90.7672 126.23C88.9335 127.912 85.5994 130.604 83.2656 132.286C90.4338 135.651 97.7687 137.501 104.77 137.501C120.774 137.501 132.61 128.585 137.111 119.668C141.945 109.911 141.612 93.0878 129.109 78.7881ZM44.4238 102.509C44.5905 107.556 48.758 111.593 53.7591 111.593H54.0925C59.2603 111.425 63.2612 107.051 63.0945 101.836C62.9278 96.7889 58.7602 92.7514 53.7591 92.7514H53.4257C53.0923 92.7514 52.5922 92.7514 52.2588 92.9196C45.424 81.4798 42.59 69.0307 43.5902 55.5721C44.2571 45.4782 47.5911 36.7301 53.4257 29.4961C58.2601 23.2715 67.5955 20.2434 73.9302 20.0751C91.6007 19.7387 99.1023 41.9453 99.6025 50.8616C101.77 51.3663 105.437 52.5439 107.938 53.3851C105.937 26.1315 89.2669 12 73.2634 12C58.2601 12 44.4238 22.9351 38.9226 39.0854C31.2542 60.6191 36.2553 81.3116 45.5907 97.6301C44.7572 98.8077 44.2571 100.658 44.4238 102.509Z" fill="#764ABC"/>
</g>
<defs>
<clipPath id="clip0_306_594">
<rect width="131" height="126" fill="white" transform="translate(9 12)"/>
</clipPath>
</defs>
</svg>
