<svg width="300" height="150" viewBox="0 0 300 150" fill="none" xmlns="http://www.w3.org/2000/svg">
<g clip-path="url(#clip0_306_655)">
<g clip-path="url(#clip1_306_655)">
<path d="M281.527 96.5291L275.28 97.3526C275.28 97.3526 274.863 94.882 272.781 93.235C270.698 91.588 263.618 91.9997 263.618 96.1173C263.618 99.8231 266.533 99.4114 272.364 100.647C277.779 101.882 282.36 103.529 282.36 110.941C282.36 115.058 279.445 119.999 270.282 119.999C255.288 119.999 256.538 108.882 256.538 108.882H263.202C263.202 108.882 263.618 112.588 266.117 113.411C269.032 114.646 274.03 114.235 274.863 111.764C275.696 109.294 275.696 106.411 267.783 105.588C259.87 104.352 256.538 101.058 256.538 95.7055C256.954 90.7644 259.87 86.6469 270.282 86.6469C280.694 87.0586 281.527 96.5291 281.527 96.5291ZM252.789 96.5291L246.542 97.3526C246.542 97.3526 246.125 94.882 244.043 93.235C241.961 91.588 234.88 91.9997 234.88 96.1173C234.88 99.8231 237.796 99.4114 243.627 100.647C249.041 101.882 253.622 103.529 253.622 110.941C253.622 115.058 250.707 119.999 241.544 119.999C226.55 119.999 227.8 108.882 227.8 108.882H234.88C234.88 108.882 235.297 112.588 237.796 113.411C240.711 114.646 245.709 114.235 246.542 111.764C247.375 109.294 247.375 106.411 239.462 105.588C232.381 104.764 228.633 101.882 228.633 97.3526V95.7055C229.049 90.7644 231.965 86.6469 241.961 86.6469C251.54 87.0586 252.789 96.5291 252.789 96.5291ZM217.388 108.058H224.468V108.47C224.052 110.941 222.802 119.588 210.724 119.588C199.895 119.588 196.147 111.352 196.147 102.705C196.147 93.6467 201.561 87.0586 211.557 87.0586C222.802 87.0586 223.635 97.7643 223.635 97.7643L216.971 98.5879C216.971 98.5879 216.555 92.8232 210.724 92.8232C204.893 92.8232 202.811 97.3526 202.811 102.705C202.811 108.058 204.477 114.235 210.307 114.235C216.138 114.235 217.388 108.058 217.388 108.058ZM181.986 87.8821V119.176H176.155V116.293C176.155 116.293 174.073 119.999 169.075 119.999C163.661 119.999 159.912 117.529 159.496 108.058C159.496 98.1761 165.743 95.7055 169.908 95.7055C173.656 95.7055 176.155 98.5879 176.155 98.5879V87.8821H181.986ZM176.155 107.647C176.155 104.352 175.739 100.647 170.741 100.647C165.743 100.647 165.743 106.411 165.743 108.058C165.743 110.117 166.16 114.646 170.741 114.646C175.322 114.646 176.155 110.941 176.155 107.647ZM154.914 103.529V118.764H148.667V103.941C148.667 101.882 147.418 100.235 144.919 100.235C142.42 100.235 139.921 102.294 139.921 104.352V118.764H133.673V95.7055H139.921V98.9996C139.921 98.9996 142.003 94.882 148.251 95.2938C155.331 96.1173 154.914 102.705 154.914 103.529ZM122.428 96.1173H128.676V119.176H122.428V96.1173ZM122.428 87.8821H128.676V93.235H122.428V87.8821ZM119.929 96.1173L113.265 119.176H107.018L102.853 103.941L98.6883 119.176H92.8575L86.1937 96.1173H92.8575L96.1894 110.941L100.771 96.1173H106.185L109.934 111.352L113.265 96.1173H119.929ZM77.0309 87.4704H83.2783V118.764H77.0309V87.4704ZM65.7857 96.1173H72.033V119.176H65.7857V96.1173ZM65.7857 87.8821H72.033V93.235H65.7857V87.8821ZM60.7878 104.352V118.764H54.957V115.882C54.957 115.882 53.291 117.941 50.7921 118.764C47.0437 119.999 41.6293 119.176 39.9634 115.058C38.7139 111.764 39.9634 108.058 43.2953 106.411C47.4602 104.352 54.5405 104.764 54.5405 104.764C54.5405 104.764 54.957 103.117 54.124 101.882C53.7075 100.647 52.4581 100.235 50.7921 100.235C46.6272 100.235 46.6272 103.117 46.6272 103.117L40.7964 102.705C40.7964 102.705 40.7964 99.8231 43.7118 97.7643C45.3778 96.5291 47.4602 96.1173 51.2086 96.1173C55.79 96.1173 60.7878 97.7643 60.7878 104.352ZM51.2086 114.646C55.3735 113.823 54.957 108.882 54.957 108.882H53.291C52.0416 108.882 50.3756 108.882 49.1262 109.294C47.0437 109.705 46.2107 110.529 45.7942 111.352C45.3778 112.588 45.7942 113.823 47.0437 114.646C47.8767 115.058 49.1262 115.058 51.2086 114.646ZM42.4623 87.4704V93.6467H32.8831V119.176H25.8028V93.235H16.64V87.4704H42.4623Z" fill="#252A2F"/>
<path d="M196.147 38.4711C196.147 38.4711 190.316 47.1181 180.32 45.471C170.324 43.824 168.658 29.0007 150.749 29.0007C128.676 29.0007 126.177 47.5298 126.177 47.5298C126.177 47.5298 132.424 38.4711 142.003 40.1182C151.582 41.7652 155.331 56.5885 174.906 56.5885C194.481 56.5885 196.147 38.4711 196.147 38.4711Z" fill="url(#paint0_linear_306_655)"/>
<path d="M172.823 66.059C172.823 66.059 166.993 74.7059 156.997 73.0589C147.001 71.4118 145.335 56.5885 127.426 56.5885C105.352 56.5885 102.853 75.1176 102.853 75.1176C102.853 75.1176 109.101 66.059 118.68 67.706C127.843 69.353 132.007 84.1763 151.582 84.1763C171.157 84.1763 172.823 66.059 172.823 66.059Z" fill="url(#paint1_linear_306_655)"/>
</g>
</g>
<defs>
<linearGradient id="paint0_linear_306_655" x1="125.981" y1="42.7946" x2="196.109" y2="42.7946" gradientUnits="userSpaceOnUse">
<stop stop-color="#45A9B3"/>
<stop offset="0.389" stop-color="#3FAEB0"/>
<stop offset="1" stop-color="#2CBBAB"/>
</linearGradient>
<linearGradient id="paint1_linear_306_655" x1="102.528" y1="70.3824" x2="172.653" y2="70.3824" gradientUnits="userSpaceOnUse">
<stop stop-color="#45A9B3"/>
<stop offset="0.389" stop-color="#3FAEB0"/>
<stop offset="1" stop-color="#2CBBAB"/>
</linearGradient>
<clipPath id="clip0_306_655">
<rect width="300" height="150" fill="white"/>
</clipPath>
<clipPath id="clip1_306_655">
<rect width="265.72" height="91" fill="white" transform="translate(16.64 29)"/>
</clipPath>
</defs>
</svg>
