<svg width="150" height="150" viewBox="0 0 150 150" fill="none" xmlns="http://www.w3.org/2000/svg">
<g clip-path="url(#clip0_306_611)">
<path d="M17 75V133H75H133V75V17H75H17V75Z" fill="#007ACC"/>
<path d="M42.6519 75.3848L42.6151 80.1352H50.1643H57.7135V101.586V123.037H63.0532H68.3929V101.586V80.1352H75.9421H83.4913V75.4768C83.4913 72.8991 83.436 70.7448 83.3624 70.6895C83.3072 70.6159 74.1192 70.5791 62.9795 70.5975L42.7072 70.6527L42.6519 75.3848Z" fill="white"/>
<path d="M110.6 70.5178C113.547 71.2544 115.793 72.5617 117.855 74.6975C118.923 75.8391 120.507 77.9197 120.635 78.4169C120.672 78.5642 115.627 81.9521 112.571 83.8486C112.46 83.9223 112.018 83.4436 111.521 82.707C110.03 80.5343 108.465 79.5953 106.071 79.4296C102.554 79.1902 100.289 81.0315 100.308 84.1064C100.308 85.0086 100.437 85.5426 100.805 86.2791C101.578 87.881 103.014 88.8385 107.526 90.7902C115.83 94.3623 119.383 96.7191 121.593 100.07C124.06 103.808 124.613 109.774 122.937 114.211C121.096 119.035 116.529 122.313 110.103 123.399C108.115 123.749 103.401 123.694 101.265 123.307C96.6068 122.478 92.1878 120.177 89.4627 117.157C88.3948 115.979 86.3141 112.904 86.443 112.683C86.4983 112.609 86.977 112.315 87.511 112.002C88.0265 111.707 89.9783 110.584 91.8195 109.516L95.1522 107.583L95.8519 108.614C96.8278 110.105 98.9637 112.149 100.253 112.83C103.954 114.782 109.035 114.506 111.54 112.259C112.607 111.284 113.049 110.271 113.049 108.779C113.049 107.435 112.884 106.846 112.184 105.833C111.282 104.545 109.44 103.458 104.211 101.193C98.2272 98.6156 95.6494 97.0137 93.2926 94.4728C91.93 92.9997 90.6411 90.6429 90.1072 88.6728C89.6653 87.034 89.5548 82.928 89.9046 81.2709C91.1383 75.4893 95.5021 71.4569 101.799 70.2601C103.843 69.8734 108.594 70.0207 110.6 70.5178Z" fill="white"/>
</g>
<defs>
<clipPath id="clip0_306_611">
<rect width="116" height="116" fill="white" transform="translate(17 17)"/>
</clipPath>
</defs>
</svg>
