<svg width="85" height="86" viewBox="0 0 85 86" fill="none" xmlns="http://www.w3.org/2000/svg">
<rect x="0.126465" y="0.839111" width="84.8736" height="84.8736" rx="4.89655" fill="url(#paint0_linear_93_284)"/>
<path d="M33.161 75.5138C31.2148 75.5138 29.5155 75.1652 28.0632 74.4681C26.6399 73.7419 25.4199 72.7397 24.4032 71.4617L28.9782 67.061C29.501 67.7872 30.111 68.3391 30.8081 68.7167C31.5343 69.0943 32.3477 69.2831 33.2481 69.2831C34.1195 69.2831 34.8748 69.1088 35.5138 68.7603C36.1529 68.3826 36.6612 67.8598 37.0388 67.1917C37.4164 66.4946 37.6052 65.6377 37.6052 64.621V44.2734H44.4894V64.2289C44.4894 66.5236 44.0247 68.5134 43.0952 70.1981C42.1657 71.8828 40.8585 73.19 39.1738 74.1195C37.489 75.049 35.4848 75.5138 33.161 75.5138ZM59.5313 75.0345L47.68 44.2734H54.9999L64.0191 69.1524H61.0127L70.1626 44.2734H77.3954L65.4134 75.0345H59.5313Z" fill="white"/>
<defs>
<linearGradient id="paint0_linear_93_284" x1="67.4541" y1="75.5115" x2="16.8564" y2="11.8564" gradientUnits="userSpaceOnUse">
<stop stop-color="#5060B3"/>
<stop offset="1" stop-color="#42ACC3"/>
</linearGradient>
</defs>
</svg>
